<svg xmlns="http://www.w3.org/2000/svg" xmlns:xlink="http://www.w3.org/1999/xlink" width="1080" zoomAndPan="magnify" viewBox="0 0 810 809.999993" height="1080" preserveAspectRatio="xMidYMid meet" version="1.0"><defs><clipPath id="840d538c01"><path d="M 106.078125 81 L 701 81 L 701 697.5 L 106.078125 697.5 Z M 106.078125 81 " clip-rule="nonzero"/></clipPath></defs><g clip-path="url(#840d538c01)"><path fill="#000000" d="M 691.511719 648.050781 L 543.871094 506.152344 C 587.722656 459.21875 611.753906 398.34375 611.753906 333.769531 C 611.753906 269.195312 585.441406 202.792969 537.75 155.035156 C 490.011719 107.277344 426.558594 81 359.089844 81 C 291.617188 81 228.167969 107.277344 180.429688 155.035156 C 132.691406 202.792969 106.425781 266.269531 106.425781 333.769531 C 106.425781 401.269531 132.691406 464.746094 180.429688 512.503906 C 228.167969 560.261719 291.617188 586.539062 359.089844 586.539062 C 409.976562 586.539062 458.539062 571.59375 499.832031 543.761719 L 651.585938 689.59375 C 656.976562 694.757812 664.058594 697.636719 671.546875 697.636719 C 679.039062 697.636719 686.945312 694.390625 692.332031 688.769531 C 703.34375 677.300781 702.976562 659.019531 691.511719 648.007812 Z M 470.09375 499.707031 C 438.347656 521.003906 400.203125 533.433594 359.089844 533.433594 C 248.859375 533.433594 159.554688 444.046875 159.554688 333.816406 C 159.554688 223.585938 248.859375 134.148438 359.089844 134.148438 C 469.316406 134.148438 558.625 223.539062 558.625 333.769531 C 558.625 388.425781 536.652344 437.964844 501.066406 474.023438 C 491.65625 483.574219 481.242188 492.214844 470.050781 499.707031 Z M 470.09375 499.707031 " fill-opacity="1" fill-rule="nonzero"/><path fill="#ffffff" d="M 691.59375 647.890625 L 543.929688 506.03125 C 587.789062 459.109375 611.820312 398.253906 611.820312 333.699219 C 611.820312 269.140625 585.503906 202.757812 537.808594 155.015625 C 490.0625 107.269531 426.605469 81 359.125 81 C 291.644531 81 228.183594 107.269531 180.441406 155.015625 C 132.695312 202.757812 106.425781 266.21875 106.425781 333.699219 C 106.425781 401.179688 132.695312 464.636719 180.441406 512.382812 C 228.183594 560.125 291.644531 586.394531 359.125 586.394531 C 410.019531 586.394531 458.585938 571.457031 499.886719 543.632812 L 651.660156 689.421875 C 657.050781 694.582031 664.132812 697.460938 671.625 697.460938 C 679.117188 697.460938 687.023438 694.21875 692.414062 688.597656 C 703.425781 677.128906 703.058594 658.855469 691.59375 647.84375 Z M 470.144531 499.589844 C 438.390625 520.878906 400.242188 533.304688 359.125 533.304688 C 248.878906 533.304688 159.5625 443.941406 159.5625 333.742188 C 159.5625 223.546875 248.878906 134.132812 359.125 134.132812 C 469.367188 134.132812 558.6875 223.5 558.6875 333.699219 C 558.6875 388.339844 536.710938 437.863281 501.121094 473.914062 C 491.710938 483.460938 481.292969 492.097656 470.097656 499.589844 Z M 470.144531 499.589844 " fill-opacity="1" fill-rule="nonzero"/></g></svg>