<svg xmlns="http://www.w3.org/2000/svg" xmlns:xlink="http://www.w3.org/1999/xlink" width="1080" zoomAndPan="magnify" viewBox="0 0 810 809.999993" height="1080" preserveAspectRatio="xMidYMid meet" version="1.0"><defs><clipPath id="250a520333"><path d="M 116.792969 92.738281 L 693.542969 92.738281 L 693.542969 698.738281 L 116.792969 698.738281 Z M 116.792969 92.738281 " clip-rule="nonzero"/></clipPath><clipPath id="23976526e4"><path d="M 116.792969 102.023438 L 693.542969 102.023438 L 693.542969 708 L 116.792969 708 Z M 116.792969 102.023438 " clip-rule="nonzero"/></clipPath></defs><path fill="#ffffff" d="M 405.015625 242.710938 C 341.34375 242.710938 289.726562 296.925781 289.726562 363.800781 C 289.726562 430.683594 341.34375 484.898438 405.015625 484.898438 C 468.691406 484.898438 520.300781 430.683594 520.300781 363.800781 C 520.300781 296.925781 468.691406 242.710938 405.015625 242.710938 " fill-opacity="1" fill-rule="nonzero"/><g clip-path="url(#250a520333)"><path fill="#ffffff" d="M 596.488281 604.703125 C 570.953125 542.375 517.351562 503.390625 404.839844 503.390625 C 292.476562 503.390625 238.875 542.269531 213.300781 604.457031 C 161.253906 551.703125 128.878906 477.679688 128.878906 395.710938 C 128.878906 235.523438 252.507812 105.664062 405.015625 105.664062 C 557.523438 105.664062 681.15625 235.523438 681.15625 395.710938 C 681.15625 477.808594 648.675781 551.933594 596.488281 604.703125 Z M 405.015625 92.976562 C 245.835938 92.976562 116.792969 228.515625 116.792969 395.710938 C 116.792969 483.15625 152.09375 561.945312 208.550781 617.214844 C 260.023438 667.609375 329.089844 698.441406 405.015625 698.441406 C 480.808594 698.441406 549.769531 667.710938 601.226562 617.464844 C 657.824219 562.191406 693.238281 483.292969 693.238281 395.710938 C 693.238281 228.515625 564.191406 92.976562 405.015625 92.976562 " fill-opacity="1" fill-rule="nonzero"/></g><path fill="#ffffff" d="M 405.015625 251.996094 C 341.34375 251.996094 289.726562 306.210938 289.726562 373.085938 C 289.726562 439.96875 341.34375 494.183594 405.015625 494.183594 C 468.691406 494.183594 520.300781 439.96875 520.300781 373.085938 C 520.300781 306.210938 468.691406 251.996094 405.015625 251.996094 " fill-opacity="1" fill-rule="nonzero"/><g clip-path="url(#23976526e4)"><path fill="#ffffff" d="M 596.488281 613.988281 C 570.953125 551.65625 517.351562 512.675781 404.839844 512.675781 C 292.476562 512.675781 238.875 551.554688 213.300781 613.742188 C 161.253906 560.988281 128.878906 486.964844 128.878906 404.996094 C 128.878906 244.804688 252.507812 114.949219 405.015625 114.949219 C 557.523438 114.949219 681.15625 244.804688 681.15625 404.996094 C 681.15625 487.09375 648.675781 561.21875 596.488281 613.988281 Z M 405.015625 102.261719 C 245.835938 102.261719 116.792969 237.800781 116.792969 404.996094 C 116.792969 492.441406 152.09375 571.230469 208.550781 626.5 C 260.023438 676.894531 329.089844 707.726562 405.015625 707.726562 C 480.808594 707.726562 549.769531 676.996094 601.226562 626.75 C 657.824219 571.476562 693.238281 492.578125 693.238281 404.996094 C 693.238281 237.800781 564.191406 102.261719 405.015625 102.261719 " fill-opacity="1" fill-rule="nonzero"/></g></svg>