<svg xmlns="http://www.w3.org/2000/svg" xmlns:xlink="http://www.w3.org/1999/xlink" width="1080" zoomAndPan="magnify" viewBox="0 0 810 809.999993" height="1080" preserveAspectRatio="xMidYMid meet" version="1.0"><defs><clipPath id="4db11e926b"><path d="M 0 107.195312 L 810 107.195312 L 810 135 L 0 135 Z M 0 107.195312 " clip-rule="nonzero"/></clipPath><clipPath id="1b531ea200"><path d="M 0 593 L 810 593 L 810 620.195312 L 0 620.195312 Z M 0 593 " clip-rule="nonzero"/></clipPath><clipPath id="399893c952"><path d="M 0 107.195312 L 810 107.195312 L 810 135 L 0 135 Z M 0 107.195312 " clip-rule="nonzero"/></clipPath><clipPath id="32f018e4ea"><path d="M 0 593 L 810 593 L 810 620.195312 L 0 620.195312 Z M 0 593 " clip-rule="nonzero"/></clipPath></defs><g clip-path="url(#4db11e926b)"><path fill="#ffffff" d="M 0 107.359375 L 810 107.359375 L 810 134.359375 L 0 134.359375 Z M 0 107.359375 " fill-opacity="1" fill-rule="nonzero"/></g><path fill="#ffffff" d="M 0 350.359375 L 486 350.359375 L 486 377.359375 L 0 377.359375 Z M 0 350.359375 " fill-opacity="1" fill-rule="nonzero"/><g clip-path="url(#1b531ea200)"><path fill="#ffffff" d="M 0 593.359375 L 810 593.359375 L 810 620.359375 L 0 620.359375 Z M 0 593.359375 " fill-opacity="1" fill-rule="nonzero"/></g><g clip-path="url(#399893c952)"><path fill="#ffffff" d="M 0 107.359375 L 810 107.359375 L 810 134.359375 L 0 134.359375 Z M 0 107.359375 " fill-opacity="1" fill-rule="nonzero"/></g><path fill="#ffffff" d="M 0 350.359375 L 486 350.359375 L 486 377.359375 L 0 377.359375 Z M 0 350.359375 " fill-opacity="1" fill-rule="nonzero"/><g clip-path="url(#32f018e4ea)"><path fill="#ffffff" d="M 0 593.359375 L 810 593.359375 L 810 620.359375 L 0 620.359375 Z M 0 593.359375 " fill-opacity="1" fill-rule="nonzero"/></g></svg>